<svg width="2221" height="846" viewBox="0 0 2221 846" fill="none" xmlns="http://www.w3.org/2000/svg">
<path d="M292.246 339.5C278.246 334.167 264.579 329.833 251.246 326.5C238.246 323.167 223.413 321.333 206.746 321C190.413 320.333 175.913 322.333 163.246 327C150.579 331.667 139.079 340.667 128.746 354C118.413 367 111.579 384.167 108.246 405.5C107.579 409.167 120.246 410.333 146.246 409C172.246 407.333 197.579 405.5 222.246 403.5C246.913 401.5 263.913 403 273.246 408C306.246 437.333 329.413 464.5 342.746 489.5C349.413 501.5 346.579 518.833 334.246 541.5C318.579 569.833 295.913 590.667 266.246 604C213.913 628 156.579 619.167 94.2461 577.5C68.9128 560.5 43.4128 538 17.7461 510L32.7461 502.5C52.0794 512.833 67.5794 520.833 79.2461 526.5C91.2461 532.167 106.246 538 124.246 544C142.246 549.667 158.079 552.667 171.746 553C203.413 553.667 229.413 546 249.746 530C270.079 513.667 281.579 491.667 284.246 464C284.579 461 272.579 461.5 248.246 465.5C223.913 469.167 199.413 472.5 174.746 475.5C150.079 478.5 131.413 476.167 118.746 468.5C105.413 457.833 84.5794 436.833 56.2461 405.5C47.2461 394.5 42.5794 382.667 42.2461 370C41.9128 357.333 46.0794 344.5 54.7461 331.5C63.4128 318.5 74.0794 306.833 86.7461 296.5C99.4128 286.167 114.246 277.667 131.246 271C148.579 264.333 165.746 261 182.746 261C187.079 261 195.246 263.833 207.246 269.5C219.246 274.833 235.746 283 256.746 294C278.079 305 292.079 312.167 298.746 315.5L292.246 339.5ZM447.039 290.5L448.039 617.5L373.039 603V270L447.039 290.5ZM562.059 290L562.559 558H716.559L756.559 603H563.059L493.059 588.5V269.5L562.059 290ZM840.77 290L841.27 558H995.27L1035.27 603H841.77L771.77 588.5V269.5L840.77 290ZM1124.48 290.5L1125.48 617.5L1050.48 603V270L1124.48 290.5ZM1239.5 290L1344.5 544.5L1466 270L1535 290L1536 617.5L1466 603V434.5L1383.5 617.5L1318.5 603L1319 602L1318.5 602.5L1239.5 406L1240.5 617.5L1170.5 603V270L1239.5 290ZM1741.05 290.5L1740.55 292L1874.55 617.5L1810.05 603L1775.05 511.5L1657.05 519.5L1621.05 617.5L1551.05 603L1672.05 270L1741.05 290.5ZM1716.05 358L1673.05 476L1759.05 470L1716.05 358ZM2185.66 290V617.5L2115.66 603L1953.66 374L1954.66 617.5L1884.66 603V270L1953.66 290L2115.66 516.5V270L2185.66 290Z" fill="#222222"/>
<path d="M696.858 149.95L679.458 160H615.108V55H679.458L696.858 65.05V149.95ZM636.108 73V142H675.858V73H636.108ZM920.935 55L958.435 160H937.735L929.785 137.35H890.485L882.535 160H861.835L899.335 55H920.935ZM909.985 81.4L896.785 119.35H923.335L910.285 81.4H909.985ZM1123.41 160V55H1144.41V160H1123.41ZM1319.84 160V55H1340.84V142H1376.69V160H1319.84ZM1560.48 160V115.15L1526.73 55H1549.53L1570.83 94.3H1571.13L1592.58 55H1615.38L1581.48 115.3V160H1560.48Z" fill="#BB1017"/>
</svg>
